<?xml version="1.0" encoding="UTF-8" standalone="no"?>
<svg
   xmlns="http://www.w3.org/2000/svg"
   version="1.1"
   width="1239.36"
   height="142.08"
   viewBox="0 0 1239.36 142.08"
   preserveAspectRatio="xMidYMid meet">

  <g
     id="g1"
     style="fill:#111;stroke:none">
    <path
       d="M 82.751984,133.68 C 80.698996,130.116 71.335505,113.7 61.944226,97.200001 52.552948,80.700001 44.60161,67.205319 44.274587,67.21182 43.947564,67.21832 34.392,83.405006 23.04,103.18223 11.688,122.95946 2.076,139.15414 1.68,139.17041 1.284,139.18669 0.95999999,108.30075 0.95999999,70.534997 V 1.8699916 L 15.6,2.1349958 30.24,2.4 l 0.238294,31.2 0.238295,31.200001 -3.118295,5.28 -3.118294,5.28 -0.25244,-33.36 L 23.97512,8.6400001 H 15.82756 7.6799999 V 63.110324 117.58065 L 23.112614,90.710325 c 8.487938,-14.778679 18.963938,-33.00085 23.28,-40.493715 4.58684,-7.962947 8.203945,-13.270408 8.705544,-12.773842 0.471987,0.467252 2.696308,4.196043 4.942935,8.286203 l 4.084778,7.436654 2.017093,-3.302812 c 1.109402,-1.816547 3.205081,-5.569786 4.657064,-8.340532 3.422548,-6.53107 1.068454,-9.445155 22.111073,27.370844 C 103.09221,86.705907 113.55885,104.952 116.1703,109.44 l 4.74809,8.16 0.0208,-54.479999 0.0208,-54.4800009 h -8.14756 -8.14756 l -0.25244,33.3600009 -0.25244,33.36 -2.64,-5.008086 -2.640001,-5.008086 V 33.631914 1.92 H 112.8 126.72 V 70.720001 C 126.72,108.56 126.55543,139.34 126.35429,139.12 126.15315,138.9 114.44052,118.632 100.32622,94.080001 86.211922,69.528001 74.528226,49.291736 74.362452,49.110523 74.05389,48.773225 68.181085,58.652111 68.17422,59.520001 c -0.0021,0.264 9.959118,17.976 22.136014,39.36 C 115.33778,142.83118 113.8502,139.68 109.57066,139.68 h -3.22934 L 83.386339,99.360001 C 70.761101,77.184001 59.111659,56.717157 57.49869,53.878126 l -2.932669,-5.161875 -3.287272,5.457025 -3.287271,5.457025 1.111025,2.10485 c 0.611063,1.157667 10.764981,19.08974 22.56426,39.849049 24.527494,43.15297 22.37564,38.5758 18.135582,38.5758 H 86.48469 Z M 185.1997,132.72 c 13.49688,-36.496492 11.94659,-34.094168 18.42062,-28.54453 2.84882,2.44206 9.49968,6.56144 14.77968,9.15418 5.59421,3.62918 11.33804,5.05346 17.72428,6.30055 5.79298,1.87744 11.33156,1.39382 17.28,1.03651 16.00665,-0.96148 28.60504,-5.73291 41.23965,-15.61882 3.80274,-2.97544 7.04169,-5.256436 7.19766,-5.068887 0.42152,0.506847 14.95841,39.090647 14.95841,39.702597 0,0.28865 -7.21156,0.40638 -16.02568,0.26161 L 284.74865,139.68 281.62175,132 c -1.7198,-4.224 -3.27963,-8.07416 -3.46629,-8.5559 -4.97811,-0.0398 -24.8606,7.79082 -48.10525,1.50117 -9.12937,-2.47027 -7.79385,-4.16173 -12.11587,7.01765 l -3.16905,8.1971 h -16.1585 -16.1585 z m 26.32068,-2.40605 c 0.71838,-1.71932 1.91217,-4.8138 2.65288,-6.87662 l 1.34674,-3.75058 -1.05141,-0.35385 c -0.57827,-0.19461 -3.94763,-2.25608 -7.48745,-4.58105 l -6.43605,-4.22721 -1.00269,2.57768 c -0.55149,1.41773 -2.21879,5.81768 -3.70512,9.77768 -1.48634,3.96 -3.00399,7.956 -3.37256,8.88 l -0.67014,1.68 h 9.20983 9.20982 z M 307.2,132.76069 c 0,-0.55091 -7.64622,-21.44331 -8.07325,-22.05919 -0.0681,-0.0982 -3.06208,1.71203 -6.65335,4.02269 -3.59128,2.31067 -7.00106,4.35836 -7.57729,4.55044 l -1.0477,0.34923 2.63972,6.90807 2.63972,6.90807 h 9.03607 c 4.96984,0 9.03608,-0.30569 9.03608,-0.67931 z m 65.91919,6.13162 c 1.50251,-2.60044 45.91844,-56.247866 46.60392,-56.29016 0.37572,-0.02318 10.27703,11.405851 22.00292,25.39785 l 21.3198,25.44 h 9.04648 9.04647 l -3.81573,-4.56 c -2.09865,-2.508 -13.79243,-16.60852 -25.98617,-31.3345 l -22.17045,-26.774502 3.66701,-4.425499 c 7.00545,-8.454462 45.53971,-55.312517 46.46795,-56.5054989 l 0.9337,-1.2 h -8.75092 -8.75092 L 418.53078,61.680001 C 394.21941,90.852001 373.91243,114.864 373.40415,115.04 L 372.48,115.36 V 58.160001 0.96000001 l 3.12,0.0234681 c 9.54854,0.0718226 17.38775,4.15935899 21.54693,11.23503589 L 399.84,16.8 l 0.48,12.124156 0.48,12.124155 17.22544,-20.044155 17.22544,-20.04415599 h 4.13456 c 5.47427,0 8.21291,-3.79497691 -28.50544,39.50039999 l -32.64,38.486499 v 9.486551 c 0,11.8057 -5.6568,17.15161 41.26105,-38.993449 L 460.01356,0.96000001 h 16.79322 c 10.33522,0 16.67016,0.35515529 16.47321,0.92353789 -0.176,0.5079458 -12.77197,16.0851511 -27.99106,34.6160111 l -27.67106,33.692473 0.88993,1.143989 c 0.48946,0.629195 12.96763,15.83199 27.72927,33.783989 14.76163,17.952 27.16264,33.18 27.55779,33.84 l 0.71845,1.2 h -17.11605 -17.11605 l -20.09774,-23.99486 -20.09774,-23.994871 -0.9062,0.906194 c -0.4984,0.498406 -9.3861,11.188097 -19.75042,23.754867 l -18.84424,22.84867 -4.13324,0.29915 -4.13324,0.29914 z M 386.79721,57.216231 394.56,48.192461 V 34.859645 21.526829 l -2.16,-4.279463 -2.16,-4.279462 -3.84,-2.14816 c -2.112,-1.1814874 -4.812,-2.1552657 -6,-2.1639515 l -2.16,-0.015792 V 37.44 c 0,15.840001 0.17874,28.800001 0.39721,28.800001 0.21847,0 3.89047,-4.060697 8.16,-9.02377 z m 164.46788,81.767489 c 7.67753,-20.93787 14.81809,-39.115771 15.37007,-39.127945 0.39334,-0.0087 3.41734,2.174525 6.72,4.851565 6.97147,5.65087 18.68578,11.57132 27.60483,13.95159 5.61031,2.17897 12.56337,2.54838 18.4675,2.55769 11.5928,-0.83233 11.12077,-1.21493 17.34945,-2.96982 10.89391,-3.06929 24.71372,-10.64778 29.85184,-16.37012 1.00583,-1.1202 2.30183,-2.035847 2.88,-2.03477 0.797,0.0015 9.5249,21.73424 15.71937,39.14176 l 0.43546,1.22372 -16.13011,-0.26372 -16.13011,-0.26372 -3.52787,-8.64 -3.52787,-8.64 -1.33383,0.33055 c -0.7336,0.1818 -4.51133,1.61675 -8.47133,2.65405 -5.88186,2.20434 -11.37754,1.90342 -18.08911,2.06279 -9.55053,-0.44463 -12.34301,-0.8997 -18.45339,-2.50029 -3.96,-1.0373 -7.803,-2.03475 -8.53999,-2.21655 l -1.34,-0.33055 -3.46351,8.64 -3.46351,8.64 -16.18831,0.26372 -16.1883,0.26372 z m 30.29489,-12.70495 2.91667,-7.16123 -1.74256,-0.55306 c -0.9584,-0.30419 -4.4271,-2.28818 -7.70822,-4.40887 -3.28113,-2.12069 -6.06053,-3.72526 -6.17647,-3.56571 -0.35318,0.48608 -8.20941,21.92629 -8.20941,22.40408 0,0.24531 4.05075,0.44602 9.00166,0.44602 h 9.00166 z m 94.28001,6.44591 c 0,-0.62723 -7.70978,-21.38118 -8.22273,-22.13478 -0.10861,-0.15955 -2.88202,1.44502 -6.16314,3.56571 -3.28112,2.12069 -6.74983,4.10468 -7.70823,4.40887 l -1.74255,0.55306 2.91667,7.16123 2.91667,7.16123 h 9.00166 c 4.95091,0 9.00165,-0.32189 9.00165,-0.71532 z m 63.36,-61.179015 c 0,-37.766116 0.324,-68.6573587 0.72,-68.6472067 0.396,0.010152 11.52,18.8621827 24.72,41.8934017 13.2,23.031219 24.909,43.383333 26.01999,45.226921 l 2.01999,3.351977 3.00541,-5.548899 3.00541,-5.548899 -22.5454,-39.649394 C 750.69439,-2.1357513 752.50717,1.7095075 757.04224,2.1020494 L 760.4845,2.4 785.83946,47.040001 c 27.61892,48.625947 26.17769,46.72154 30.1504,39.84 l 2.77104,-4.8 -22.12424,-38.88 C 784.46834,21.816 774.29691,3.78 774.0335,3.12 l -0.47893,-1.2 h 3.40405 3.40405 L 801.3592,38.847259 822.35573,75.774518 842.7074,40.527259 C 853.90082,21.141267 863.48017,4.6320001 863.99483,3.84 l 0.93576,-1.44 0.0147,68.880001 0.0147,68.879999 h -14.4 -14.4 V 108.38149 76.60297 l 2.64,-4.700509 c 4.04005,-7.193288 4.08,-6.915019 4.08,28.417539 v 33.12 h 8.16 8.16 V 78.986395 24.532788 l -1.28195,1.893606 c -0.70507,1.041484 -10.9199,18.741607 -22.69961,39.333607 -11.77971,20.592 -21.85074,37.993269 -22.38007,38.669489 l -0.96242,1.2295 -3.30504,-6.029495 c -1.81778,-3.316222 -3.96466,-7.063818 -4.77086,-8.327992 l -1.46581,-2.298497 -4.81847,8.392367 -4.81847,8.392367 -1.68057,-2.73387 C 790.0924,101.55024 779.72365,83.472001 767.97505,62.880001 756.22644,42.288001 746.45781,25.26 746.26697,25.04 c -0.19084,-0.22 -0.34698,24.080001 -0.34698,54.000001 V 133.44 h 8.14756 8.14756 l 0.25244,-33.36 0.25244,-33.359999 2.65313,5.033988 2.65312,5.033988 -0.25312,31.446013 -0.25313,31.44601 -14.16,0.26567 -14.16,0.26566 z m 311.72411,68.018415 c -0.3763,-0.37625 -0.6841,-25.65763 -0.6841,-56.180867 V 27.886424 L 1034.16,27.623212 1018.08,27.36 1017.8121,14.64 1017.5443,1.92 h 18.8764 c 25.292,0 31.0647,2.1930684 36.5005,13.866617 l 2.26,4.853383 0.01,56.400001 0.01,56.399999 h 7.68 7.68 V 77.280001 21.12 h 19.2 19.2 V 14.88 8.6400001 h -19.2 -19.2 v -3.36 V 1.92 h 22.08 22.08 v 12.96 12.96 h -18.7123 -18.7122 l -0.249,55.920001 L 1096.8,139.68 h -13.92 -13.92 L 1068.7123,83.760001 1068.4645,27.84 h -5.7445 -5.7445 l -0.2478,55.920001 -0.2477,55.919999 -2.4359,0.28408 c -1.3398,0.15624 -2.7438,-0.0238 -3.12,-0.4 z M 1068.48,20.301968 c 0,-1.530915 -4.3108,-7.158572 -7.027,-9.173698 L 1058.746,9.1200001 1041.533,8.8194014 1024.32,8.5188028 V 14.819402 21.12 h 22.08 c 12.144,0 22.08,-0.368114 22.08,-0.818032 z M 921.59999,71.040001 V 2.88 h 13.92 13.92 V 71.040001 139.2 h -13.92 -13.92 z m 22.08,-0.48 V 8.6400001 h -8.16 -8.16 V 70.560001 132.48 h 8.16 8.16 z m 15.36,0.48 V 2.88 h 3.36 3.36 V 71.040001 139.2 h -3.36 -3.36 z m 231.36001,0 V 2.88 h 13.92 13.92 V 71.040001 139.2 h -13.92 -13.92 z m 22.08,-0.48 V 8.6400001 h -8.16 -8.16 V 70.560001 132.48 h 8.16 8.16 z m 15.36,0.48 V 2.88 h 3.36 3.36 V 71.040001 139.2 h -3.36 -3.36 z M 241.34602,104.69262 c -14.03056,-2.19987 -36.83901,-15.977031 -36.87305,-22.272711 -0.004,-0.714949 6.75808,-19.119908 15.02655,-40.899908 L 234.53309,1.92 h 15.0359 15.0359 l 15.06816,39.600001 c 17.082,44.892466 15.78762,40.362595 12.61181,44.136828 -11.77168,13.989846 -32.85974,21.870431 -50.93884,19.035791 z m 11.61849,-7.492619 c -0.37449,-0.924 -1.11097,-2.868 -1.63662,-4.32 -1.2994,-3.589364 -2.18044,-3.319357 -3.49594,1.071379 -1.50872,5.035665 -1.55977,4.928621 2.35076,4.928621 h 3.46271 z m -8.29453,-11.595484 c 5.09916,-14.219902 4.40321,-14.242741 10.12835,0.332387 l 4.71832,12.011978 1.52168,-0.448852 c 0.83691,-0.246869 2.73128,-0.737624 4.20969,-1.090566 1.47842,-0.352943 2.55842,-1.175234 2.4,-1.827314 C 266.89908,91.499294 250.02081,47.060487 249.6,47.063503 c -0.65472,0.0047 -18.61715,47.920957 -18.14007,48.390145 0.66885,0.657794 7.06452,2.292068 8.06007,2.059576 0.528,-0.123305 2.84549,-5.482223 5.14998,-11.908707 z m -7.43396,-25.124516 c 6.52867,-17.424 12.08938,-31.674881 12.35714,-31.668623 0.26776,0.0063 5.83263,14.245532 12.36639,31.642832 l 11.87955,31.631455 2.52045,-1.303407 c 1.38624,-0.716874 4.59027,-3.230937 7.12005,-5.586808 l 4.59961,-4.283401 -1.84041,-4.696024 C 285.22657,73.633212 278.87927,56.940001 272.1337,39.120001 L 259.86901,6.7200001 h -10.4145 c -5.72798,0 -10.41451,0.1542885 -10.41451,0.3428634 0,0.1885748 -6.27225,16.8743785 -13.93832,37.0795635 l -13.93832,36.736701 1.21832,1.484127 c 1.51754,1.848629 11.56122,9.795321 12.38117,9.796142 0.33157,3.33e-4 5.94449,-14.255396 12.47317,-31.679396 z m 366.60397,42.653109 c -2.904,-0.75929 -8.55791,-2.84435 -12.39881,-4.948963 -9.28745,-5.089042 -13.33736,-9.786984 -19.23093,-15.68056 l 1.77214,-4.531793 C 574.95707,75.479308 581.72171,57.672001 589.01492,38.4 596.30814,19.128 602.68932,2.8090819 603.19533,2.1357376 L 604.11536,0.91147517 618.56463,1.1757376 633.0139,1.44 648.18006,41.265518 c 16.78043,44.064492 16.2566,41.12208 8.58528,48.224364 -13.87169,12.842738 -35.07862,18.309518 -52.92535,13.643228 z m 17.76452,-5.933109 c -0.37449,-0.924 -1.11097,-2.868 -1.63662,-4.32 -1.3401,-3.701772 -2.28098,-3.304557 -3.97939,1.68 l -1.47197,4.32 h 3.88444 3.88444 z m -9.64776,-9.275296 c 2.47114,-6.416992 5.9221,-14.710913 6.29542,-14.29 0.37332,0.420913 2.73903,6.007087 5.25713,12.413721 l 4.57836,11.648425 3.47617,-0.937638 c 1.91189,-0.515701 3.78858,-1.231509 4.17042,-1.590685 0.68728,-0.646483 -15.91211,-45.970384 -17.37016,-47.428426 -0.41632,-0.416325 -4.76675,9.878041 -9.66763,22.876369 -4.92922,13.073519 -8.63628,24.117561 -8.08357,24.433276 8.58538,4.904073 7.1475,3.77194 11.34386,-7.125042 z m -1.90409,-39.204704 c 4.11108,-10.956001 7.74303,-19.911624 8.07101,-19.901386 0.32798,0.01024 5.94064,14.250999 12.47257,31.646136 l 11.87625,31.627522 3.96375,-2.754486 c 2.18007,-1.514967 5.31392,-4.199728 6.96413,-5.966136 l 3.00038,-3.21165 -13.9813,-36.749749 -13.98131,-36.7497497 -10.47683,0.2697489 -10.47683,0.2697489 -13.7978,36.3526189 -13.7978,36.352619 1.30065,1.856934 c 1.52718,2.18035 7.91322,7.710394 10.60995,9.187771 l 1.87948,1.029657 4.44951,-11.6698 c 2.44722,-6.418389 7.81311,-20.633799 11.92419,-31.589799 z"
       id="path19" />
  </g>
</svg>
