<?xml version="1.0" encoding="UTF-8" standalone="no"?>
<svg
   width="244.262"
   height="32.398"
   viewBox="0 0 244.262 32.398"
   version="1.1"
   id="svg1"
   sodipodi:docname="ITI-logo-bright.svg"
   inkscape:version="1.4 (86a8ad7, 2024-10-11)"
   xmlns:inkscape="http://www.inkscape.org/namespaces/inkscape"
   xmlns:sodipodi="http://sodipodi.sourceforge.net/DTD/sodipodi-0.dtd"
   xmlns="http://www.w3.org/2000/svg"
   xmlns:svg="http://www.w3.org/2000/svg">
  <defs
     id="defs1">
    <rect
       x="108.74158"
       y="0.75891432"
       width="134.86991"
       height="30.356573"
       id="rect1" />
  </defs>
  <sodipodi:namedview
     id="namedview1"
     pagecolor="#ffffff"
     bordercolor="#000000"
     borderopacity="0.25"
     inkscape:showpageshadow="2"
     inkscape:pageopacity="0.0"
     inkscape:pagecheckerboard="0"
     inkscape:deskcolor="#d1d1d1"
     inkscape:zoom="4.6118514"
     inkscape:cx="107.11533"
     inkscape:cy="37.620467"
     inkscape:window-width="2400"
     inkscape:window-height="1261"
     inkscape:window-x="2391"
     inkscape:window-y="-9"
     inkscape:window-maximized="1"
     inkscape:current-layer="layer2" />
  <g
     id="Grupo_1366"
     data-name="Grupo 1366"
     transform="translate(-222.777 -394.91)">
    <path
       id="Rectángulo_1"
       d="M 0 0.000953125 L 0 32.397438 L 32.398438 32.397438 L 32.398438 0.000953125 L 0 0.000953125 z M 13.228516 4.8642344 L 20.146484 4.8642344 L 20.146484 25.938453 L 13.228516 25.938453 L 13.228516 4.8642344 z "
       transform="translate(222.777 394.911)"
       style="fill:#efa21d;fill-opacity:1" />
    <path
       id="Rectángulo_2"
       d="M 0.000875 0.000953125 L 0.000875 32.397438 L 32.397359 32.397438 L 32.397359 0.000953125 L 0.000875 0.000953125 z M 12.739156 4.8642344 L 19.657125 4.8642344 L 19.657125 12.268531 L 26.73525 12.268531 L 26.73525 19.1865 L 19.657125 19.1865 L 19.657125 25.938453 L 12.739156 25.938453 L 12.739156 19.1865 L 5.6629844 19.1865 L 5.6629844 12.268531 L 12.739156 12.268531 L 12.739156 4.8642344 z "
       transform="translate(259.198 394.911)"
       style="fill:#ea8118;fill-opacity:1" />
    <path
       id="Rectángulo_3"
       d="M 0 0.000953125 L 0 32.397438 L 32.398438 32.397438 L 32.398438 0.000953125 L 0 0.000953125 z M 12.742188 5.1904063 L 19.660156 5.1904063 L 19.660156 26.262672 L 12.742188 26.262672 L 12.742188 5.1904063 z "
       transform="translate(295.402 394.911)"
       style="fill:#e15100;fill-opacity:1" />
  </g>
  <g
     inkscape:groupmode="layer"
     id="layer2"
     inkscape:label="Letras 1">
    <g
       id="text1"
       style="font-size:10.6667px;font-family:Arial;-inkscape-font-specification:Arial;white-space:pre;fill:#ddd"
       transform="matrix(1.0226079,0,0,1.0226079,-0.59008318,2.1543293)"
       aria-label="CENTRO TECNOLÓGICO ESPECIALIZADO EN TIC">
      <path
         style="-inkscape-font-specification:'Gotham, Bold'"
         d="m 113.03968,10.980015 c 1.41859,0 2.24262,-0.500678 2.99364,-1.3038501 L 115.0111,8.6435157 c -0.5737,0.5319708 -1.0848,0.8553256 -1.91927,0.8553256 -1.25169,0 -2.11745,-1.04308 -2.11745,-2.2947761 v -0.020862 c 0,-1.251696 0.88662,-2.2739145 2.11745,-2.2739145 0.74059,0 1.29342,0.312924 1.86711,0.8240333 l 1.02222,-1.1786805 c -0.66757,-0.6675712 -1.51246,-1.1265264 -2.8789,-1.1265264 -2.24262,0 -3.80724,1.7002204 -3.80724,3.7759497 v 0.020862 c 0,2.0965909 1.59591,3.7550882 3.74466,3.7550882 z m 4.27663,-0.12517 h 5.55962 V 9.4258257 h -3.9637 V 7.892498 h 3.44216 V 6.4634784 h -3.44216 V 4.9823047 h 3.91155 V 3.5532851 h -5.50747 z m 6.98864,0 h 1.58548 V 6.2131392 l 3.53604,4.6417058 h 1.36644 V 3.5532851 h -1.58548 V 8.04896 l -3.4213,-4.4956749 h -1.48118 z m 9.94056,0 h 1.60635 V 5.0344587 h 2.22176 V 3.5532851 h -6.04987 v 1.4811736 h 2.22176 z m 5.05895,0 h 1.60634 V 8.5183461 h 1.26213 l 1.56462,2.3364989 h 1.87754 l -1.78366,-2.6076997 c 0.92834,-0.3442165 1.56462,-1.0848033 1.56462,-2.2634837 V 5.9628 c 0,-0.6988637 -0.20862,-1.2516961 -0.62585,-1.6689281 -0.49025,-0.4902476 -1.19954,-0.7405868 -2.12788,-0.7405868 h -3.33786 z M 140.9108,7.0997572 V 5.0031663 h 1.59592 c 0.79274,0 1.26212,0.3442164 1.26212,1.0430801 v 0.020862 c 0,0.625848 -0.43809,1.0326492 -1.23083,1.0326492 z m 9.4816,3.8802578 c 2.25305,0 3.89069,-1.7002205 3.89069,-3.7759498 v -0.020862 c 0,-2.0757293 -1.61678,-3.7550881 -3.86983,-3.7550881 -2.25305,0 -3.89069,1.7002204 -3.89069,3.7759497 v 0.020862 c 0,2.0757293 1.61677,3.7550882 3.86983,3.7550882 z m 0.0209,-1.4811737 c -1.29342,0 -2.21133,-1.04308 -2.21133,-2.2947761 v -0.020862 c 0,-1.251696 0.89705,-2.2739145 2.19047,-2.2739145 1.29342,0 2.21133,1.0430801 2.21133,2.2947761 v 0.020862 c 0,1.2516961 -0.89705,2.2739145 -2.19047,2.2739145 z m 10.1283,1.3560037 h 1.60634 V 5.0344587 h 2.22176 V 3.5532851 h -6.04986 v 1.4811736 h 2.22176 z m 5.05895,0 h 5.55961 V 9.4258257 h -3.9637 V 7.892498 h 3.44216 V 6.4634784 h -3.44216 V 4.9823047 h 3.91155 V 3.5532851 h -5.50746 z m 10.40994,0.12517 c 1.41858,0 2.24262,-0.500678 2.99363,-1.3038501 l -1.02221,-1.0326492 c -0.5737,0.5319708 -1.08481,0.8553256 -1.91927,0.8553256 -1.2517,0 -2.11745,-1.04308 -2.11745,-2.2947761 v -0.020862 c 0,-1.251696 0.88661,-2.2739145 2.11745,-2.2739145 0.74059,0 1.29342,0.312924 1.86711,0.8240333 l 1.02222,-1.1786805 c -0.66757,-0.6675712 -1.51247,-1.1265264 -2.8789,-1.1265264 -2.24262,0 -3.80724,1.7002204 -3.80724,3.7759497 v 0.020862 c 0,2.0965909 1.59591,3.7550882 3.74466,3.7550882 z m 4.27663,-0.12517 h 1.58549 V 6.2131392 l 3.53604,4.6417058 h 1.36643 V 3.5532851 h -1.58548 V 8.04896 l -3.4213,-4.4956749 h -1.48118 z m 11.78682,0.12517 c 2.25305,0 3.89069,-1.7002205 3.89069,-3.7759498 v -0.020862 c 0,-2.0757293 -1.61678,-3.7550881 -3.86983,-3.7550881 -2.25305,0 -3.89069,1.7002204 -3.89069,3.7759497 v 0.020862 c 0,2.0757293 1.61677,3.7550882 3.86983,3.7550882 z m 0.0209,-1.4811737 c -1.29342,0 -2.21133,-1.04308 -2.21133,-2.2947761 v -0.020862 c 0,-1.251696 0.89705,-2.2739145 2.19047,-2.2739145 1.29342,0 2.21133,1.0430801 2.21133,2.2947761 v 0.020862 c 0,1.2516961 -0.89705,2.2739145 -2.19047,2.2739145 z m 5.29885,1.3560037 h 5.2467 V 9.3945333 h -3.64035 V 3.5532851 h -1.60635 z m 9.58589,0.12517 c 2.25305,0 3.89069,-1.7002205 3.89069,-3.7759498 v -0.020862 c 0,-2.0757293 -1.61678,-3.7550881 -3.86983,-3.7550881 -2.25305,0 -3.89069,1.7002204 -3.89069,3.7759497 v 0.020862 c 0,2.0757293 1.61678,3.7550882 3.86983,3.7550882 z m 0.0209,-1.4811737 c -1.29342,0 -2.21133,-1.04308 -2.21133,-2.2947761 v -0.020862 c 0,-1.251696 0.89705,-2.2739145 2.19047,-2.2739145 1.29342,0 2.21133,1.0430801 2.21133,2.2947761 v 0.020862 c 0,1.2516961 -0.89705,2.2739145 -2.19047,2.2739145 z M 206.34322,2.875283 h 1.20997 l 1.41859,-1.04308 -1.36643,-0.5945556 z m 9.47117,8.104732 c 1.33515,0 2.3678,-0.52154 3.11881,-1.1578189 V 6.6512328 h -3.17096 v 1.3872964 h 1.61677 v 1.0430801 c -0.4068,0.2920624 -0.91791,0.4380936 -1.51246,0.4380936 -1.29342,0 -2.21133,-0.9804952 -2.21133,-2.3156377 v -0.020862 c 0,-1.2412652 0.92834,-2.2739145 2.09659,-2.2739145 0.83446,0 1.356,0.2712008 1.90884,0.7405868 l 1.01178,-1.2204036 c -0.75101,-0.6467096 -1.56462,-1.0013568 -2.86847,-1.0013568 -2.21133,0 -3.8281,1.7002204 -3.8281,3.7759497 v 0.020862 c 0,2.1696065 1.56462,3.7550882 3.83853,3.7550882 z m 4.73559,-0.12517 h 1.60634 V 3.5532851 h -1.60634 z m 6.85304,0.12517 c 1.41859,0 2.24262,-0.500678 2.99364,-1.3038501 l -1.02222,-1.0326492 c -0.57369,0.5319708 -1.0848,0.8553256 -1.91927,0.8553256 -1.25169,0 -2.11745,-1.04308 -2.11745,-2.2947761 v -0.020862 c 0,-1.251696 0.88662,-2.2739145 2.11745,-2.2739145 0.74059,0 1.29342,0.312924 1.86712,0.8240333 l 1.02222,-1.1786805 c -0.66758,-0.6675712 -1.51247,-1.1265264 -2.87891,-1.1265264 -2.24262,0 -3.80724,1.7002204 -3.80724,3.7759497 v 0.020862 c 0,2.0965909 1.59591,3.7550882 3.74466,3.7550882 z m 7.61449,0 c 2.25305,0 3.89069,-1.7002205 3.89069,-3.7759498 v -0.020862 c 0,-2.0757293 -1.61678,-3.7550881 -3.86983,-3.7550881 -2.25305,0 -3.89069,1.7002204 -3.89069,3.7759497 v 0.020862 c 0,2.0757293 1.61678,3.7550882 3.86983,3.7550882 z m 0.0209,-1.4811737 c -1.29342,0 -2.21133,-1.04308 -2.21133,-2.2947761 v -0.020862 c 0,-1.251696 0.89705,-2.2739145 2.19047,-2.2739145 1.29342,0 2.21133,1.0430801 2.21133,2.2947761 v 0.020862 c 0,1.2516961 -0.89705,2.2739145 -2.19047,2.2739145 z"
         id="path109" />
      <path
         style="-inkscape-font-specification:'Gotham, Normal'"
         d="m 109.7942,24.94189 h 5.43009 v -0.765101 h -4.5906 v -2.603468 h 4.05928 V 20.80822 h -4.05928 v -2.539709 h 4.53747 V 17.50341 h -5.37696 z m 9.67003,0.106264 c 1.47707,0 2.53971,-0.828859 2.53971,-2.104027 v -0.02125 c 0,-1.137025 -0.76511,-1.732103 -2.42282,-2.104027 -1.6471,-0.340045 -2.01902,-0.743848 -2.01902,-1.445191 v -0.02125 c 0,-0.68009 0.60571,-1.200784 1.58333,-1.200784 0.7651,0 1.45582,0.244408 2.14654,0.807607 l 0.48881,-0.648211 c -0.7651,-0.605704 -1.51957,-0.91387 -2.61409,-0.91387 -1.41331,0 -2.44408,0.871365 -2.44408,2.029642 v 0.02125 c 0,1.222036 0.78636,1.774609 2.49721,2.146533 1.56208,0.340045 1.934,0.722595 1.934,1.413311 v 0.02125 c 0,0.733222 -0.64821,1.264542 -1.65771,1.264542 -1.03077,0 -1.77461,-0.340045 -2.55034,-1.052014 l -0.52069,0.616331 c 0.89261,0.807607 1.84899,1.190157 3.03915,1.190157 z m 4.25055,-0.106264 h 0.83948 v -2.624721 h 1.80649 c 1.58334,0 2.92226,-0.828859 2.92226,-2.433445 v -0.02125 c 0,-1.466443 -1.10514,-2.359061 -2.78411,-2.359061 h -2.78412 z m 0.83948,-3.389822 v -3.272931 h 1.88088 c 1.20078,0 1.99776,0.552573 1.99776,1.615213 v 0.02125 c 0,0.977629 -0.80761,1.636465 -2.04027,1.636465 z m 6.25895,3.389822 h 5.43009 v -0.765101 h -4.59061 v -2.603468 h 4.05929 V 20.80822 h -4.05929 v -2.539709 h 4.53747 V 17.50341 h -5.37695 z m 10.52013,0.127517 c 1.33893,0 2.2103,-0.520694 2.9754,-1.307047 l -0.55258,-0.541947 c -0.71197,0.68009 -1.38143,1.073267 -2.40156,1.073267 -1.6471,0 -2.87976,-1.349553 -2.87976,-3.07103 v -0.02125 c 0,-1.71085 1.23266,-3.049777 2.87976,-3.049777 1.02013,0 1.70022,0.425056 2.3378,1.020135 l 0.57383,-0.616331 c -0.73322,-0.711969 -1.55145,-1.179531 -2.90101,-1.179531 -2.17841,0 -3.76174,1.74273 -3.76174,3.846757 v 0.02125 c 0,2.135906 1.58333,3.825504 3.72986,3.825504 z m 4.55874,-0.127517 h 0.83948 v -7.43848 h -0.83948 z m 2.38031,0 h 0.86074 l 0.88199,-1.965884 h 4.04866 l 0.87137,1.965884 h 0.90324 l -3.38982,-7.491612 h -0.78636 z m 2.07215,-2.720358 1.70023,-3.793625 1.68959,3.793625 z m 6.9603,2.720358 h 5.02629 v -0.775727 h -4.1868 V 17.50341 h -0.83949 z m 6.60962,0 h 0.83949 v -7.43848 h -0.83949 z m 2.67786,0 h 5.96141 v -0.754474 h -4.82439 l 4.82439,-6.120807 V 17.50341 h -5.80202 v 0.754474 h 4.65437 l -4.81376,6.120807 z m 7.06656,0 h 0.86074 l 0.88199,-1.965884 h 4.04866 l 0.87137,1.965884 h 0.90324 l -3.38982,-7.491612 h -0.78636 z m 2.07215,-2.720358 1.70023,-3.793625 1.68959,3.793625 z m 6.9603,2.720358 h 2.58222 c 2.33781,0 3.95302,-1.625839 3.95302,-3.71924 v -0.02125 c 0,-2.093401 -1.61521,-3.697987 -3.95302,-3.697987 h -2.58222 z m 2.58222,-6.662753 c 1.88087,0 3.08166,1.296421 3.08166,2.943513 v 0.02125 c 0,1.657718 -1.20079,2.92226 -3.08166,2.92226 h -1.74273 v -5.887026 z m 9.1812,6.79027 c 2.26342,0 3.80425,-1.795862 3.80425,-3.846757 v -0.02125 c 0,-2.050895 -1.51957,-3.825504 -3.783,-3.825504 -2.26342,0 -3.80425,1.795862 -3.80425,3.846757 v 0.02125 c 0,2.050895 1.51958,3.825504 3.783,3.825504 z m 0.0213,-0.775727 c -1.70022,0 -2.93288,-1.381432 -2.93288,-3.07103 v -0.02125 c 0,-1.689597 1.21141,-3.049777 2.91163,-3.049777 1.70023,0 2.93289,1.381432 2.93289,3.07103 v 0.02125 c 0,1.689597 -1.21141,3.049777 -2.91164,3.049777 z m 8.74553,0.64821 h 5.43009 v -0.765101 h -4.5906 v -2.603468 h 4.05928 V 20.80822 h -4.05928 v -2.539709 h 4.53747 V 17.50341 h -5.37696 z m 7.11969,0 h 0.81823 v -6.099554 l 4.80314,6.099554 h 0.66946 v -7.43848 h -0.81823 v 5.96141 l -4.68625,-5.96141 h -0.78635 z"
         id="path110" />
      <path
         style="-inkscape-font-specification:'Gotham, Bold'"
         d="m 223.4967,24.94189 h 1.63647 v -5.929531 h 2.26342 V 17.50341 h -6.16331 v 1.508949 h 2.26342 z m 5.2282,0 h 1.63646 v -7.43848 h -1.63646 z m 6.98155,0.127517 c 1.44519,0 2.28467,-0.510067 3.04977,-1.3283 l -1.04138,-1.052014 c -0.58446,0.541947 -1.10515,0.871365 -1.95526,0.871365 -1.27517,0 -2.15716,-1.06264 -2.15716,-2.337808 v -0.02125 c 0,-1.275168 0.90324,-2.316555 2.15716,-2.316555 0.75447,0 1.31767,0.318792 1.90212,0.839486 l 1.04139,-1.200784 c -0.68009,-0.680089 -1.54083,-1.147651 -2.93289,-1.147651 -2.28467,0 -3.87863,1.732103 -3.87863,3.846757 v 0.02125 c 0,2.135906 1.62584,3.825504 3.81488,3.825504 z"
         id="path111" />
    </g>
  </g>
</svg>
